<?xml version="1.0" standalone="no"?>
<!DOCTYPE svg PUBLIC "-//W3C//DTD SVG 20010904//EN"
 "http://www.w3.org/TR/2001/REC-SVG-20010904/DTD/svg10.dtd">
<svg version="1.0" xmlns="http://www.w3.org/2000/svg"
 width="512.000000pt" height="512.000000pt" viewBox="0 0 512.000000 512.000000"
 preserveAspectRatio="xMidYMid meet">
<metadata>
Created by potrace 1.14, written by Peter Selinger 2001-2017
</metadata>
<g transform="translate(0.000000,512.000000) scale(0.100000,-0.100000)"
fill="#000000" stroke="none">
<path d="M2965 4951 c-90 -23 -180 -97 -218 -181 -30 -66 -30 -199 1 -258 25
-49 27 -58 10 -59 -75 -4 -294 -72 -416 -129 -83 -38 -214 -111 -247 -136 -5
-5 -45 -36 -89 -69 -191 -149 -407 -419 -487 -609 -6 -14 -16 -38 -24 -55 -44
-100 -92 -270 -110 -385 -4 -25 -9 -54 -11 -65 -2 -11 -5 -42 -6 -68 0 -27 -6
-50 -12 -52 -121 -31 -169 -62 -209 -138 -27 -51 -31 -131 -10 -193 28 -81
132 -153 225 -154 21 -1 29 -18 92 -214 38 -118 78 -225 87 -238 l18 -23 1481
0 1481 0 18 24 c14 19 47 104 51 131 1 3 25 75 54 160 l53 155 46 7 c120 17
208 107 213 218 3 79 -18 138 -67 188 -39 39 -67 52 -165 78 -7 1 -12 20 -12
42 -1 49 -14 140 -37 247 -10 48 -55 197 -72 235 -112 258 -217 415 -389 585
-225 223 -495 370 -820 446 l-92 21 26 45 c47 85 36 226 -27 317 -71 102 -216
157 -336 127z"/>
<path d="M925 1749 c-35 -20 -45 -41 -45 -96 l0 -53 -285 0 c-299 0 -333 -4
-349 -45 -8 -21 -8 -1153 0 -1183 13 -48 41 -52 347 -52 l285 0 4 -60 c7 -100
-14 -95 381 -98 188 -2 352 0 364 3 32 8 47 41 53 116 l5 67 70 -35 c146 -73
132 -72 875 -72 449 0 683 4 719 11 68 14 171 67 487 250 138 80 271 157 295
171 24 13 85 48 134 77 50 29 104 60 120 70 17 9 103 59 192 111 90 52 171 99
180 104 140 80 168 102 207 163 92 147 51 337 -94 434 -60 40 -90 49 -163 53
-95 5 -109 -1 -532 -248 -66 -38 -136 -79 -155 -89 -19 -11 -85 -49 -148 -85
l-114 -66 -36 37 c-50 52 -105 81 -197 106 -44 11 -129 34 -190 50 -60 15
-135 35 -165 43 -78 22 -501 135 -590 158 -41 11 -106 29 -145 39 -175 48
-223 45 -517 -28 l-236 -59 -4 88 c-5 134 26 124 -386 126 -241 2 -353 -1
-367 -8z"/>
</g>
</svg>
